<svg width="920" height="196" viewBox="0 0 920 196" fill="none" xmlns="http://www.w3.org/2000/svg">
<rect width="920" height="195.652" fill="#D8DCDD"/>
<path d="M195.308 82V73.6H196.496V82H195.308ZM206.119 82.096C205.479 82.096 204.883 81.988 204.331 81.772C203.787 81.556 203.315 81.256 202.915 80.872C202.515 80.48 202.203 80.024 201.979 79.504C201.755 78.984 201.643 78.416 201.643 77.8C201.643 77.184 201.755 76.616 201.979 76.096C202.203 75.576 202.515 75.124 202.915 74.74C203.315 74.348 203.787 74.044 204.331 73.828C204.875 73.612 205.471 73.504 206.119 73.504C206.759 73.504 207.347 73.612 207.883 73.828C208.427 74.036 208.899 74.336 209.299 74.728C209.707 75.112 210.019 75.564 210.235 76.084C210.459 76.604 210.571 77.176 210.571 77.8C210.571 78.424 210.459 78.996 210.235 79.516C210.019 80.036 209.707 80.492 209.299 80.884C208.899 81.268 208.427 81.568 207.883 81.784C207.347 81.992 206.759 82.096 206.119 82.096ZM206.119 81.028C206.583 81.028 207.011 80.948 207.403 80.788C207.803 80.628 208.147 80.404 208.435 80.116C208.731 79.82 208.959 79.476 209.119 79.084C209.287 78.692 209.371 78.264 209.371 77.8C209.371 77.336 209.287 76.908 209.119 76.516C208.959 76.124 208.731 75.784 208.435 75.496C208.147 75.2 207.803 74.972 207.403 74.812C207.011 74.652 206.583 74.572 206.119 74.572C205.647 74.572 205.211 74.652 204.811 74.812C204.419 74.972 204.075 75.2 203.779 75.496C203.483 75.784 203.251 76.124 203.083 76.516C202.923 76.908 202.843 77.336 202.843 77.8C202.843 78.264 202.923 78.692 203.083 79.084C203.251 79.476 203.483 79.82 203.779 80.116C204.075 80.404 204.419 80.628 204.811 80.788C205.211 80.948 205.647 81.028 206.119 81.028ZM214.11 82V74.332L214.41 74.644H211.242V73.6H218.166V74.644H214.998L215.286 74.332V82H214.11ZM219.624 82V73.6H222.9C223.636 73.6 224.264 73.716 224.784 73.948C225.304 74.18 225.704 74.516 225.984 74.956C226.264 75.396 226.404 75.92 226.404 76.528C226.404 77.136 226.264 77.66 225.984 78.1C225.704 78.532 225.304 78.868 224.784 79.108C224.264 79.34 223.636 79.456 222.9 79.456H220.284L220.824 78.892V82H219.624ZM220.824 79.012L220.284 78.412H222.864C223.632 78.412 224.212 78.248 224.604 77.92C225.004 77.592 225.204 77.128 225.204 76.528C225.204 75.928 225.004 75.464 224.604 75.136C224.212 74.808 223.632 74.644 222.864 74.644H220.284L220.824 74.044V79.012ZM228.074 82V73.6H229.262V80.08L234.23 73.6H235.334V82H234.158V75.532L229.178 82H228.074ZM237.953 82V73.6H238.937L242.705 79.948H242.177L245.897 73.6H246.881L246.893 82H245.741L245.729 75.412H246.005L242.693 80.98H242.141L238.805 75.412H239.105V82H237.953ZM248.343 82L252.147 73.6H253.335L257.151 82H255.891L252.495 74.272H252.975L249.579 82H248.343ZM249.963 79.9L250.287 78.94H255.015L255.363 79.9H249.963ZM258.601 82V73.6H259.789V80.08L264.757 73.6H265.861V82H264.685V75.532L259.705 82H258.601ZM262.213 73.012C261.557 73.012 261.049 72.868 260.689 72.58C260.337 72.292 260.157 71.888 260.149 71.368H261.001C261.009 71.68 261.121 71.924 261.337 72.1C261.553 72.268 261.845 72.352 262.213 72.352C262.573 72.352 262.861 72.268 263.077 72.1C263.301 71.924 263.417 71.68 263.425 71.368H264.265C264.257 71.888 264.073 72.292 263.713 72.58C263.361 72.868 262.861 73.012 262.213 73.012ZM270.196 82V74.332L270.496 74.644H267.328V73.6H274.252V74.644H271.084L271.372 74.332V82H270.196ZM276.802 77.224H281.122V78.244H276.802V77.224ZM276.91 80.956H281.806V82H275.71V73.6H281.638V74.644H276.91V80.956ZM285.989 81.088L286.409 80.2C286.777 80.488 287.181 80.704 287.621 80.848C288.069 80.992 288.513 81.068 288.953 81.076C289.393 81.076 289.797 81.016 290.165 80.896C290.541 80.776 290.841 80.596 291.065 80.356C291.289 80.116 291.401 79.82 291.401 79.468C291.401 79.036 291.225 78.708 290.873 78.484C290.529 78.26 290.049 78.148 289.433 78.148H287.561V77.176H289.349C289.885 77.176 290.301 77.068 290.597 76.852C290.901 76.628 291.053 76.32 291.053 75.928C291.053 75.632 290.961 75.384 290.777 75.184C290.601 74.976 290.357 74.82 290.045 74.716C289.741 74.612 289.393 74.56 289.001 74.56C288.617 74.552 288.221 74.604 287.813 74.716C287.405 74.82 287.013 74.988 286.637 75.22L286.253 74.236C286.765 73.948 287.297 73.748 287.849 73.636C288.409 73.516 288.949 73.48 289.469 73.528C289.989 73.568 290.457 73.688 290.873 73.888C291.297 74.08 291.633 74.336 291.881 74.656C292.137 74.968 292.265 75.344 292.265 75.784C292.265 76.184 292.161 76.54 291.953 76.852C291.745 77.156 291.457 77.392 291.089 77.56C290.721 77.72 290.293 77.8 289.805 77.8L289.853 77.476C290.413 77.476 290.897 77.568 291.305 77.752C291.721 77.928 292.041 78.18 292.265 78.508C292.497 78.836 292.613 79.216 292.613 79.648C292.613 80.056 292.509 80.42 292.301 80.74C292.093 81.052 291.809 81.316 291.449 81.532C291.097 81.74 290.693 81.892 290.237 81.988C289.789 82.084 289.317 82.116 288.821 82.084C288.325 82.052 287.833 81.956 287.345 81.796C286.865 81.636 286.413 81.4 285.989 81.088ZM300.637 73.6H301.837V82H300.637V73.6ZM295.813 82H294.613V73.6H295.813V82ZM300.745 78.256H295.693V77.212H300.745V78.256ZM304.456 82V73.6H305.644V80.08L310.612 73.6H311.716V82H310.54V75.532L305.56 82H304.456ZM323.743 82L321.115 77.86L322.123 77.26L325.147 82H323.743ZM319.435 78.304V77.248H321.895V78.304H319.435ZM322.195 77.932L321.079 77.764L323.659 73.6H324.943L322.195 77.932ZM314.659 82H313.255L316.267 77.26L317.287 77.86L314.659 82ZM319.795 82H318.619V73.6H319.795V82ZM318.979 78.304H316.507V77.248H318.979V78.304ZM316.219 77.932L313.459 73.6H314.743L317.311 77.764L316.219 77.932ZM332.058 82L329.01 77.86L329.982 77.26L333.426 82H332.058ZM326.406 82V73.6H327.582V82H326.406ZM327.222 78.304V77.248H329.946V78.304H327.222ZM330.09 77.932L328.986 77.764L331.998 73.6H333.282L330.09 77.932ZM334.679 80.944C335.095 81.096 335.479 81.136 335.831 81.064C336.183 80.984 336.499 80.716 336.779 80.26L337.187 79.612L337.307 79.48L340.391 73.6H341.579L337.847 80.512C337.567 81.04 337.239 81.44 336.863 81.712C336.495 81.976 336.095 82.12 335.663 82.144C335.239 82.176 334.807 82.096 334.367 81.904L334.679 80.944ZM337.271 80.548L333.587 73.6H334.871L337.931 79.588L337.271 80.548ZM351.802 81.436V74.644H348.118L348.058 76.408C348.034 77 347.994 77.568 347.938 78.112C347.89 78.656 347.818 79.148 347.722 79.588C347.626 80.02 347.49 80.376 347.314 80.656C347.146 80.936 346.93 81.108 346.666 81.172L345.37 80.956C345.682 80.98 345.938 80.876 346.138 80.644C346.346 80.404 346.506 80.072 346.618 79.648C346.738 79.216 346.826 78.716 346.882 78.148C346.938 77.572 346.978 76.956 347.002 76.3L347.086 73.6H352.99V81.436H351.802ZM345.07 83.836L345.082 80.956H354.226V83.836H353.11V82H346.198L346.186 83.836H345.07ZM359.647 82.096C359.007 82.096 358.411 81.988 357.859 81.772C357.315 81.556 356.843 81.256 356.443 80.872C356.043 80.48 355.731 80.024 355.507 79.504C355.283 78.984 355.171 78.416 355.171 77.8C355.171 77.184 355.283 76.616 355.507 76.096C355.731 75.576 356.043 75.124 356.443 74.74C356.843 74.348 357.315 74.044 357.859 73.828C358.403 73.612 358.999 73.504 359.647 73.504C360.287 73.504 360.875 73.612 361.411 73.828C361.955 74.036 362.427 74.336 362.827 74.728C363.235 75.112 363.547 75.564 363.763 76.084C363.987 76.604 364.099 77.176 364.099 77.8C364.099 78.424 363.987 78.996 363.763 79.516C363.547 80.036 363.235 80.492 362.827 80.884C362.427 81.268 361.955 81.568 361.411 81.784C360.875 81.992 360.287 82.096 359.647 82.096ZM359.647 81.028C360.111 81.028 360.539 80.948 360.931 80.788C361.331 80.628 361.675 80.404 361.963 80.116C362.259 79.82 362.487 79.476 362.647 79.084C362.815 78.692 362.899 78.264 362.899 77.8C362.899 77.336 362.815 76.908 362.647 76.516C362.487 76.124 362.259 75.784 361.963 75.496C361.675 75.2 361.331 74.972 360.931 74.812C360.539 74.652 360.111 74.572 359.647 74.572C359.175 74.572 358.739 74.652 358.339 74.812C357.947 74.972 357.603 75.2 357.307 75.496C357.011 75.784 356.779 76.124 356.611 76.516C356.451 76.908 356.371 77.336 356.371 77.8C356.371 78.264 356.451 78.692 356.611 79.084C356.779 79.476 357.011 79.82 357.307 80.116C357.603 80.404 357.947 80.628 358.339 80.788C358.739 80.948 359.175 81.028 359.647 81.028ZM369.981 82L373.545 74.104L373.857 74.644H368.865L369.465 74.056V76.144H368.313V73.6H374.649V74.416L371.253 82H369.981ZM378.202 82.096C377.61 82.096 377.034 82.004 376.474 81.82C375.922 81.636 375.47 81.388 375.118 81.076L375.67 80.128C375.95 80.392 376.314 80.608 376.762 80.776C377.21 80.944 377.686 81.028 378.19 81.028C378.83 81.028 379.322 80.892 379.666 80.62C380.01 80.348 380.182 79.984 380.182 79.528C380.182 79.216 380.106 78.944 379.954 78.712C379.802 78.48 379.538 78.304 379.162 78.184C378.794 78.056 378.286 77.992 377.638 77.992H375.73L376.174 73.6H380.914V74.644H376.618L377.242 74.056L376.894 77.524L376.27 76.948H377.89C378.73 76.948 379.406 77.056 379.918 77.272C380.43 77.488 380.802 77.788 381.034 78.172C381.266 78.548 381.382 78.984 381.382 79.48C381.382 79.96 381.266 80.4 381.034 80.8C380.802 81.192 380.45 81.508 379.978 81.748C379.514 81.98 378.922 82.096 378.202 82.096ZM383.416 82L389.152 73.6H390.076L384.34 82H383.416ZM384.088 78.112C383.704 78.112 383.364 78.016 383.068 77.824C382.772 77.632 382.54 77.364 382.372 77.02C382.212 76.676 382.132 76.276 382.132 75.82C382.132 75.364 382.212 74.964 382.372 74.62C382.54 74.276 382.772 74.008 383.068 73.816C383.364 73.624 383.704 73.528 384.088 73.528C384.48 73.528 384.82 73.624 385.108 73.816C385.404 74.008 385.632 74.276 385.792 74.62C385.952 74.964 386.032 75.364 386.032 75.82C386.032 76.276 385.952 76.676 385.792 77.02C385.632 77.364 385.404 77.632 385.108 77.824C384.82 78.016 384.48 78.112 384.088 78.112ZM384.088 77.428C384.456 77.428 384.744 77.288 384.952 77.008C385.16 76.72 385.264 76.324 385.264 75.82C385.264 75.316 385.16 74.924 384.952 74.644C384.744 74.356 384.456 74.212 384.088 74.212C383.728 74.212 383.44 74.356 383.224 74.644C383.016 74.924 382.912 75.316 382.912 75.82C382.912 76.316 383.016 76.708 383.224 76.996C383.44 77.284 383.728 77.428 384.088 77.428ZM389.404 82.072C389.02 82.072 388.68 81.976 388.384 81.784C388.088 81.592 387.86 81.324 387.7 80.98C387.54 80.636 387.46 80.236 387.46 79.78C387.46 79.324 387.54 78.924 387.7 78.58C387.86 78.236 388.088 77.968 388.384 77.776C388.68 77.584 389.02 77.488 389.404 77.488C389.796 77.488 390.136 77.584 390.424 77.776C390.72 77.968 390.948 78.236 391.108 78.58C391.276 78.924 391.36 79.324 391.36 79.78C391.36 80.236 391.276 80.636 391.108 80.98C390.948 81.324 390.72 81.592 390.424 81.784C390.136 81.976 389.796 82.072 389.404 82.072ZM389.404 81.388C389.764 81.388 390.048 81.248 390.256 80.968C390.472 80.68 390.58 80.284 390.58 79.78C390.58 79.284 390.472 78.892 390.256 78.604C390.048 78.316 389.764 78.172 389.404 78.172C389.044 78.172 388.756 78.316 388.54 78.604C388.332 78.884 388.228 79.276 388.228 79.78C388.228 80.284 388.332 80.68 388.54 80.968C388.756 81.248 389.044 81.388 389.404 81.388Z" fill="black"/>
</svg>
