<svg width="25" height="23" viewBox="0 0 25 23" fill="none" xmlns="http://www.w3.org/2000/svg">
<path d="M13.6388 10.7723V6.28118C13.6388 5.28858 13.2433 4.33663 12.5394 3.63476C11.8354 2.93288 10.8806 2.53857 9.88506 2.53857C8.8895 2.53857 7.93472 2.93288 7.23076 3.63476C6.5268 4.33663 6.13132 5.28858 6.13132 6.28118V10.7723M17.4986 8.78323L18.7629 20.7596C18.833 21.4233 18.3125 22.0001 17.6428 22.0001H2.12733C1.96938 22.0003 1.81316 21.9673 1.66882 21.9034C1.52448 21.8394 1.39525 21.7459 1.28952 21.6289C1.18379 21.5119 1.10392 21.3741 1.05511 21.2243C1.00631 21.0745 0.989645 20.9162 1.00621 20.7596L2.27147 8.78323C2.30066 8.50734 2.43126 8.25198 2.63809 8.06641C2.84492 7.88083 3.11334 7.77817 3.39159 7.77822H16.3785C16.9551 7.77822 17.4386 8.21236 17.4986 8.78323ZM6.50669 10.7723C6.50669 10.8716 6.46714 10.9668 6.39675 11.0369C6.32635 11.1071 6.23087 11.1466 6.13132 11.1466C6.03176 11.1466 5.93628 11.1071 5.86589 11.0369C5.79549 10.9668 5.75594 10.8716 5.75594 10.7723C5.75594 10.673 5.79549 10.5778 5.86589 10.5077C5.93628 10.4375 6.03176 10.398 6.13132 10.398C6.23087 10.398 6.32635 10.4375 6.39675 10.5077C6.46714 10.5778 6.50669 10.673 6.50669 10.7723ZM14.0142 10.7723C14.0142 10.8716 13.9746 10.9668 13.9042 11.0369C13.8338 11.1071 13.7384 11.1466 13.6388 11.1466C13.5392 11.1466 13.4438 11.1071 13.3734 11.0369C13.303 10.9668 13.2634 10.8716 13.2634 10.7723C13.2634 10.673 13.303 10.5778 13.3734 10.5077C13.4438 10.4375 13.5392 10.398 13.6388 10.398C13.7384 10.398 13.8338 10.4375 13.9042 10.5077C13.9746 10.5778 14.0142 10.673 14.0142 10.7723Z" stroke="black" stroke-width="1.93304" stroke-linecap="round" stroke-linejoin="round"/>
<rect x="10.8076" y="0.5" width="13.3846" height="14.2308" rx="6.69231" fill="#F188AC"/>
<rect x="10.8076" y="0.5" width="13.3846" height="14.2308" rx="6.69231" stroke="white"/>
<path d="M17.5136 11.7655C16.772 11.7655 16.122 11.5655 15.5636 11.1655C15.0053 10.7571 14.5678 10.1946 14.2511 9.47798C13.9428 8.75298 13.7886 7.91131 13.7886 6.95298C13.7886 5.98631 13.9428 5.14465 14.2511 4.42798C14.5678 3.71131 15.0011 3.15298 15.5511 2.75298C16.1095 2.35298 16.7595 2.15298 17.5011 2.15298C18.2428 2.15298 18.8886 2.35298 19.4386 2.75298C19.997 3.15298 20.4303 3.71548 20.7386 4.44048C21.0553 5.15715 21.2136 5.99465 21.2136 6.95298C21.2136 7.91131 21.0595 8.75298 20.7511 9.47798C20.4428 10.1946 20.0095 10.7571 19.4511 11.1655C18.9011 11.5655 18.2553 11.7655 17.5136 11.7655ZM17.5136 10.4155C17.972 10.4155 18.3678 10.2738 18.7011 9.99048C19.0345 9.70715 19.2928 9.30715 19.4761 8.79048C19.6595 8.27381 19.7511 7.66131 19.7511 6.95298C19.7511 6.24465 19.6595 5.63215 19.4761 5.11548C19.2928 4.59881 19.0345 4.19881 18.7011 3.91548C18.3678 3.63215 17.9678 3.49048 17.5011 3.49048C17.0428 3.49048 16.647 3.63215 16.3136 3.91548C15.9803 4.19881 15.722 4.59881 15.5386 5.11548C15.3553 5.63215 15.2636 6.24465 15.2636 6.95298C15.2636 7.65298 15.3553 8.26548 15.5386 8.79048C15.722 9.30715 15.9803 9.70715 16.3136 9.99048C16.6553 10.2738 17.0553 10.4155 17.5136 10.4155Z" fill="white"/>
</svg>
