<svg width="20" height="23" viewBox="0 0 20 23" fill="none" xmlns="http://www.w3.org/2000/svg">
<path d="M10 22.0204C4.48596 22.0204 0 17.2352 0 11.3534C0 5.47149 4.48596 0.686279 10 0.686279C15.514 0.686279 20 5.47149 20 11.3534C20 17.2352 15.514 22.0204 10 22.0204ZM10 2.33248C5.33694 2.33248 1.54356 6.37891 1.54356 11.353C1.54356 16.3272 5.33694 20.3736 10 20.3736C14.6631 20.3736 18.4564 16.3272 18.4564 11.353C18.4564 6.37935 14.6631 2.33248 10 2.33248Z" fill="black"/>
<path d="M8.87758 17.0611C8.45109 17.0611 8.10559 16.6921 8.10559 16.2376V8.81334C8.10559 7.55325 8.58355 5.43933 11.7837 5.43933C12.2102 5.43933 12.5557 5.8083 12.5557 6.26282C12.5557 6.71734 12.2106 7.08632 11.7837 7.08632C9.90776 7.08632 9.64925 7.91662 9.64925 8.81368V16.2379C9.64925 16.692 9.30408 17.0611 8.87758 17.0611Z" fill="black"/>
<path d="M11.7833 10.8206H7.29019C6.86369 10.8206 6.51819 10.4516 6.51819 9.99708C6.51819 9.54256 6.86329 9.17358 7.29019 9.17358H11.7833C12.2098 9.17358 12.5553 9.54256 12.5553 9.99708C12.5553 10.452 12.2098 10.8206 11.7833 10.8206Z" fill="black"/>
</svg>
