<svg width="128" height="128" viewBox="0 0 128 128" fill="none" xmlns="http://www.w3.org/2000/svg">
<rect width="128" height="128" fill="#E99CB5"/>
<path d="M11.68 59.144H20.344V61.208H11.68V59.144ZM11.92 68H9.52V51.2H21.376V53.288H11.92V68ZM21.4369 68L29.0449 51.2H31.4209L39.0529 68H36.5329L29.7409 52.544H30.7009L23.9089 68H21.4369ZM24.6769 63.8L25.3249 61.88H34.7809L35.4769 63.8H24.6769ZM46.4551 68.192C45.1751 68.192 43.9511 68 42.7831 67.616C41.6151 67.216 40.6951 66.704 40.0231 66.08L40.9111 64.208C41.5511 64.768 42.3671 65.232 43.3591 65.6C44.3511 65.968 45.3831 66.152 46.4551 66.152C47.4311 66.152 48.2231 66.04 48.8311 65.816C49.4391 65.592 49.8871 65.288 50.1751 64.904C50.4631 64.504 50.6071 64.056 50.6071 63.56C50.6071 62.984 50.4151 62.52 50.0311 62.168C49.6631 61.816 49.1751 61.536 48.5671 61.328C47.9751 61.104 47.3191 60.912 46.5991 60.752C45.8791 60.592 45.1511 60.408 44.4151 60.2C43.6951 59.976 43.0311 59.696 42.4231 59.36C41.8311 59.024 41.3511 58.576 40.9831 58.016C40.6151 57.44 40.4311 56.704 40.4311 55.808C40.4311 54.944 40.6551 54.152 41.1031 53.432C41.5671 52.696 42.2711 52.112 43.2151 51.68C44.1751 51.232 45.3911 51.008 46.8631 51.008C47.8391 51.008 48.8071 51.136 49.7671 51.392C50.7271 51.648 51.5591 52.016 52.2631 52.496L51.4711 54.416C50.7511 53.936 49.9911 53.592 49.1911 53.384C48.3911 53.16 47.6151 53.048 46.8631 53.048C45.9191 53.048 45.1431 53.168 44.5351 53.408C43.9271 53.648 43.4791 53.968 43.1911 54.368C42.9191 54.768 42.7831 55.216 42.7831 55.712C42.7831 56.304 42.9671 56.776 43.3351 57.128C43.7191 57.48 44.2071 57.76 44.7991 57.968C45.4071 58.176 46.0711 58.368 46.7911 58.544C47.5111 58.704 48.2311 58.888 48.9511 59.096C49.6871 59.304 50.3511 59.576 50.9431 59.912C51.5511 60.248 52.0391 60.696 52.4071 61.256C52.7751 61.816 52.9591 62.536 52.9591 63.416C52.9591 64.264 52.7271 65.056 52.2631 65.792C51.7991 66.512 51.0791 67.096 50.1031 67.544C49.1431 67.976 47.9271 68.192 46.4551 68.192ZM68.5133 51.2H70.9133V68H68.5133V51.2ZM58.8653 68H56.4653V51.2H58.8653V68ZM68.7293 60.512H58.6253V58.424H68.7293V60.512ZM75.9419 68V51.2H78.3419V68H75.9419ZM90.9556 68.192C89.6756 68.192 88.4836 67.976 87.3796 67.544C86.2916 67.112 85.3476 66.512 84.5476 65.744C83.7476 64.96 83.1236 64.048 82.6756 63.008C82.2276 61.968 82.0036 60.832 82.0036 59.6C82.0036 58.368 82.2276 57.232 82.6756 56.192C83.1236 55.152 83.7476 54.248 84.5476 53.48C85.3476 52.696 86.2916 52.088 87.3796 51.656C88.4676 51.224 89.6596 51.008 90.9556 51.008C92.2356 51.008 93.4116 51.224 94.4836 51.656C95.5716 52.072 96.5156 52.672 97.3156 53.456C98.1316 54.224 98.7556 55.128 99.1876 56.168C99.6356 57.208 99.8596 58.352 99.8596 59.6C99.8596 60.848 99.6356 61.992 99.1876 63.032C98.7556 64.072 98.1316 64.984 97.3156 65.768C96.5156 66.536 95.5716 67.136 94.4836 67.568C93.4116 67.984 92.2356 68.192 90.9556 68.192ZM90.9556 66.056C91.8836 66.056 92.7396 65.896 93.5236 65.576C94.3236 65.256 95.0116 64.808 95.5876 64.232C96.1796 63.64 96.6356 62.952 96.9556 62.168C97.2916 61.384 97.4596 60.528 97.4596 59.6C97.4596 58.672 97.2916 57.816 96.9556 57.032C96.6356 56.248 96.1796 55.568 95.5876 54.992C95.0116 54.4 94.3236 53.944 93.5236 53.624C92.7396 53.304 91.8836 53.144 90.9556 53.144C90.0116 53.144 89.1396 53.304 88.3396 53.624C87.5556 53.944 86.8676 54.4 86.2756 54.992C85.6836 55.568 85.2196 56.248 84.8836 57.032C84.5636 57.816 84.4036 58.672 84.4036 59.6C84.4036 60.528 84.5636 61.384 84.8836 62.168C85.2196 62.952 85.6836 63.64 86.2756 64.232C86.8676 64.808 87.5556 65.256 88.3396 65.576C89.1396 65.896 90.0116 66.056 90.9556 66.056ZM103.528 68V51.2H105.496L116.608 65H115.576V51.2H117.976V68H116.008L104.896 54.2H105.928V68H103.528Z" fill="black"/>
</svg>
