<svg width="20" height="23" viewBox="0 0 20 23" fill="none" xmlns="http://www.w3.org/2000/svg">
<g clip-path="url(#clip0_22_292)">
<mask id="mask0_22_292" style="mask-type:luminance" maskUnits="userSpaceOnUse" x="0" y="0" width="20" height="23">
<path d="M20 0H0V22.1562H20V0Z" fill="white"/>
</mask>
<g mask="url(#mask0_22_292)">
<path d="M10 1.99493C12.6719 1.99493 12.9883 2.00791 14.0391 2.05984C15.0156 2.10744 15.543 2.28919 15.8945 2.44065C16.3594 2.63971 16.6953 2.88204 17.043 3.26718C17.3945 3.65665 17.6094 4.02448 17.7891 4.53944C17.9258 4.92889 18.0898 5.51741 18.1328 6.59495C18.1797 7.76332 18.1914 8.11385 18.1914 11.0695C18.1914 14.0294 18.1797 14.3799 18.1328 15.544C18.0898 16.6259 17.9258 17.2101 17.7891 17.5995C17.6094 18.1145 17.3906 18.4866 17.043 18.8718C16.6914 19.2612 16.3594 19.4993 15.8945 19.6983C15.543 19.8497 15.0117 20.0315 14.0391 20.0791C12.9844 20.131 12.668 20.144 10 20.144C7.32813 20.144 7.01171 20.131 5.96096 20.0791C4.98438 20.0315 4.45704 19.8497 4.10547 19.6983C3.64063 19.4993 3.30469 19.2569 2.95703 18.8718C2.60547 18.4823 2.39063 18.1145 2.21094 17.5995C2.07422 17.2101 1.91016 16.6215 1.86719 15.544C1.82031 14.3756 1.8086 14.0251 1.8086 11.0695C1.8086 8.10956 1.82031 7.75903 1.86719 6.59495C1.91016 5.51308 2.07422 4.92889 2.21094 4.53944C2.39063 4.02448 2.60938 3.65232 2.95703 3.26718C3.3086 2.87772 3.64063 2.63971 4.10547 2.44065C4.45704 2.28919 4.98829 2.10744 5.96096 2.05984C7.01171 2.00791 7.32813 1.99493 10 1.99493ZM10 0C7.28517 0 6.94533 0.0129822 5.87892 0.0649109C4.81642 0.11684 4.08594 0.307245 3.45313 0.579871C2.79297 0.865479 2.23438 1.24196 1.67969 1.86078C1.1211 2.47527 0.78125 3.09409 0.523438 3.82109C0.277344 4.52645 0.105469 5.33135 0.0585938 6.5084C0.0117188 7.69408 0 8.0706 0 11.0781C0 14.0857 0.0117188 14.4622 0.0585938 15.6435C0.105469 16.8206 0.277344 17.6298 0.523438 18.3308C0.78125 19.0622 1.1211 19.681 1.67969 20.2955C2.23438 20.91 2.79297 21.2908 3.44922 21.5721C4.08594 21.8447 4.8125 22.0351 5.875 22.087C6.94142 22.1389 7.28125 22.1519 9.99608 22.1519C12.711 22.1519 13.0508 22.1389 14.1172 22.087C15.1797 22.0351 15.9102 21.8447 16.543 21.5721C17.1992 21.2908 17.7578 20.91 18.3125 20.2955C18.8672 19.681 19.211 19.0622 19.4648 18.3352C19.711 17.6298 19.8828 16.8249 19.9297 15.6479C19.9766 14.4665 19.9883 14.09 19.9883 11.0825C19.9883 8.07494 19.9766 7.69842 19.9297 6.51708C19.8828 5.34003 19.711 4.53078 19.4648 3.82974C19.2188 3.09408 18.8789 2.47527 18.3203 1.86078C17.7656 1.24629 17.207 0.865479 16.5508 0.584196C15.9141 0.311572 15.1875 0.121167 14.125 0.0692383C13.0547 0.0129822 12.7148 0 10 0Z" fill="#000100"/>
<path d="M9.99999 5.38757C7.16407 5.38757 4.86328 7.93642 4.86328 11.0781C4.86328 14.2197 7.16407 16.7686 9.99999 16.7686C12.8359 16.7686 15.1367 14.2197 15.1367 11.0781C15.1367 7.93642 12.8359 5.38757 9.99999 5.38757ZM9.99999 14.7694C8.16016 14.7694 6.66795 13.1163 6.66795 11.0781C6.66795 9.03989 8.16016 7.38681 9.99999 7.38681C11.8398 7.38681 13.332 9.03989 13.332 11.0781C13.332 13.1163 11.8398 14.7694 9.99999 14.7694Z" fill="#000100"/>
<path d="M16.539 5.16262C16.539 5.8983 16 6.49112 15.3398 6.49112C14.6758 6.49112 14.1406 5.89396 14.1406 5.16262C14.1406 4.42696 14.6797 3.83411 15.3398 3.83411C16 3.83411 16.539 4.43129 16.539 5.16262Z" fill="#000100"/>
</g>
</g>
<defs>
<clipPath id="clip0_22_292">
<rect width="20" height="22.1562" fill="white"/>
</clipPath>
</defs>
</svg>
