<svg width="20" height="23" viewBox="0 0 20 23" fill="none" xmlns="http://www.w3.org/2000/svg">
<path d="M10.0001 0.755371C4.48471 0.755371 0 5.5392 0 11.4226C0 17.1984 4.32083 21.9085 9.69738 22.0792C9.79696 22.0895 9.898 22.0895 10 22.0895C10.102 22.0895 10.203 22.0895 10.3026 22.0792C15.6792 21.9086 20 17.1982 20 11.4226C20 5.53901 15.5154 0.755371 9.99993 0.755371H10.0001ZM9.37496 2.21386V6.08891H6.68935C6.85314 5.56295 7.04141 5.0773 7.24591 4.64101C7.8657 3.31876 8.61851 2.50565 9.37469 2.21379L9.37496 2.21386ZM10.6249 2.21386C11.3811 2.50566 12.1339 3.31849 12.7537 4.64107C12.9582 5.07736 13.1467 5.56302 13.3103 6.08897H10.6247V2.21392L10.6249 2.21386ZM6.90428 2.70338C6.61934 3.10838 6.35378 3.55473 6.1231 4.04713C5.83526 4.66123 5.58788 5.35417 5.38095 6.08893H2.82231C3.82251 4.55939 5.24238 3.37357 6.90428 2.70338ZM13.0956 2.70338C14.7575 3.37357 16.1776 4.55939 17.1776 6.08893H14.6189C14.412 5.35417 14.1646 4.66121 13.8768 4.04713C13.6459 3.55477 13.3806 3.10838 13.0956 2.70338ZM2.09008 7.4223H5.0589C4.85562 8.46209 4.74197 9.58585 4.70733 10.7559H1.27956C1.35831 9.56858 1.63477 8.44502 2.09002 7.4223H2.09008ZM6.35763 7.4223H9.37514V10.7559H5.94738C5.98615 9.56646 6.13763 8.44787 6.35763 7.4223ZM10.6252 7.4223H13.6427C13.8627 8.4476 14.0141 9.5662 14.0529 10.7559H10.6251L10.6252 7.4223ZM14.9417 7.4223H17.9105C18.3658 8.44476 18.6422 9.56831 18.7209 10.7559H15.2932C15.2585 9.58611 15.1449 8.46209 14.9416 7.4223H14.9417ZM1.2795 12.0893H4.70727C4.74167 13.2606 4.85531 14.3834 5.05884 15.4229H2.09002C1.63547 14.3994 1.3571 13.2777 1.27956 12.0893H1.2795ZM5.94757 12.0893H9.37533V15.4229H6.34808C6.12929 14.4025 5.98633 13.2746 5.94781 12.0893H5.94757ZM10.6253 12.0893H14.0531C14.0145 13.2743 13.8713 14.4022 13.6528 15.4229H10.6255V12.0893H10.6253ZM15.2934 12.0893H18.7211C18.6434 13.2777 18.3652 14.3991 17.9107 15.4229H14.9419C15.1454 14.3834 15.259 13.2609 15.2934 12.0893ZM2.81282 16.7563H5.38113C5.58805 17.4895 5.83543 18.1737 6.12329 18.7875C6.35759 19.2873 6.62411 19.7518 6.91439 20.1625C5.24306 19.4915 3.81568 18.2951 2.81282 16.756V16.7563ZM6.68979 16.7563H9.37539V20.642C8.61921 20.3473 7.86639 19.5164 7.24661 18.1939C7.04211 17.7576 6.85361 17.2812 6.69005 16.7563H6.68979ZM10.6254 16.7563H13.311C13.1472 17.2812 12.9589 17.7576 12.7544 18.1939C12.1346 19.5161 11.3818 20.3473 10.6256 20.642V16.7563H10.6254ZM14.6196 16.7563H17.1879C16.1851 18.2954 14.7577 19.4918 13.0864 20.1627C13.3766 19.7518 13.6429 19.2876 13.8775 18.7878C14.1653 18.1737 14.4127 17.4898 14.6196 16.7565V16.7563Z" fill="black"/>
</svg>
