<svg width="30" height="30" viewBox="0 0 30 30" fill="none" xmlns="http://www.w3.org/2000/svg">
<rect x="0.5" y="0.5" width="29" height="29" rx="14.5" stroke="black"/>
<g clip-path="url(#clip0_274_17)">
<path d="M20.75 13.3125C20.75 11.414 19.211 9.875 17.3125 9.875C16.2387 9.90846 15.2241 10.3751 14.5 11.1688C13.7759 10.3751 12.7613 9.90846 11.6875 9.875C9.78902 9.875 8.25 11.414 8.25 13.3125C8.25 15.7625 11.2188 18.4688 12.625 19.875L14.05 21.3C14.1378 21.3879 14.257 21.4374 14.3813 21.4375H14.6187C14.743 21.4374 14.8622 21.3879 14.95 21.3L16.375 19.875C17.7812 18.4688 20.75 15.7625 20.75 13.3125Z" fill="black"/>
</g>
<defs>
<clipPath id="clip0_274_17">
<rect width="15" height="15" fill="white" transform="translate(7 8)"/>
</clipPath>
</defs>
</svg>
