<svg width="30" height="30" viewBox="0 0 30 30" fill="none" xmlns="http://www.w3.org/2000/svg">
<rect width="30" height="30" rx="15" fill="black"/>
<g clip-path="url(#clip0_274_16)">
<path d="M8.25 16.1488V15.4789C8.25 15.2939 8.38991 15.144 8.5625 15.144H18.6687L15.8875 12.1699C15.8283 12.107 15.7951 12.0214 15.7951 11.9321C15.7951 11.8428 15.8283 11.7572 15.8875 11.6943L16.3313 11.2254C16.3899 11.162 16.4698 11.1263 16.5531 11.1263C16.6364 11.1263 16.7163 11.162 16.775 11.2254L20.6125 15.3316C20.7004 15.4257 20.7499 15.5534 20.75 15.6866V15.9411C20.7486 16.074 20.6993 16.2012 20.6125 16.2961L16.775 20.4023C16.7163 20.4657 16.6364 20.5013 16.5531 20.5013C16.4698 20.5013 16.3899 20.4657 16.3313 20.4023L15.8875 19.9267C15.8287 19.8649 15.7956 19.7805 15.7956 19.6922C15.7956 19.604 15.8287 19.5195 15.8875 19.4578L18.6687 16.4837H8.5625C8.38991 16.4837 8.25 16.3337 8.25 16.1488Z" fill="white"/>
</g>
<defs>
<clipPath id="clip0_274_16">
<rect width="15" height="15" fill="white" transform="translate(7 8)"/>
</clipPath>
</defs>
</svg>
