<svg width="30" height="30" viewBox="0 0 30 30" fill="none" xmlns="http://www.w3.org/2000/svg">
<rect x="-0.5" y="0.5" width="29" height="29" rx="14.5" transform="matrix(-1 0 0 1 29 0)" stroke="#9D9D9D"/>
<g clip-path="url(#clip0_52_49)">
<path d="M21.75 16.1487V15.4789C21.75 15.2939 21.6101 15.144 21.4375 15.144H11.3313L14.1125 12.1699C14.1717 12.107 14.2049 12.0214 14.2049 11.9321C14.2049 11.8428 14.1717 11.7572 14.1125 11.6943L13.6687 11.2254C13.6101 11.162 13.5302 11.1263 13.4469 11.1263C13.3636 11.1263 13.2837 11.162 13.225 11.2254L9.3875 15.3315C9.29957 15.4256 9.25011 15.5533 9.25 15.6865V15.9411C9.25144 16.074 9.3007 16.2012 9.3875 16.2961L13.225 20.4022C13.2837 20.4656 13.3636 20.5013 13.4469 20.5013C13.5302 20.5013 13.6101 20.4656 13.6687 20.4022L14.1125 19.9267C14.1713 19.8649 14.2044 19.7804 14.2044 19.6922C14.2044 19.604 14.1713 19.5195 14.1125 19.4578L11.3313 16.4837H21.4375C21.6101 16.4837 21.75 16.3337 21.75 16.1487Z" fill="#9D9D9D"/>
</g>
<defs>
<clipPath id="clip0_52_49">
<rect width="15" height="15" fill="white" transform="matrix(-1 0 0 1 23 8)"/>
</clipPath>
</defs>
</svg>
