<svg width="18" height="18" viewBox="0 0 18 18" fill="none" xmlns="http://www.w3.org/2000/svg">
<path d="M6.53989 0.389756C8.09856 0.391282 9.59837 0.984561 10.7364 2.04944C11.8744 3.11452 12.5656 4.57171 12.6701 6.12679C12.7748 7.68183 12.2851 9.21866 11.3 10.4264L17.45 16.5764C17.5802 16.6879 17.658 16.8486 17.6646 17.0198C17.6711 17.191 17.6061 17.3572 17.4848 17.4783C17.3637 17.5995 17.1975 17.6647 17.0263 17.6581C16.8551 17.6515 16.6944 17.5737 16.5829 17.4436L10.4329 11.2936C8.88593 12.5632 6.81777 13.0007 4.88913 12.4663C2.96042 11.9318 1.41241 10.4923 0.739523 8.60755C0.0665932 6.72262 0.352867 4.62825 1.50702 2.99309C2.66105 1.35813 4.53862 0.386881 6.53984 0.389654L6.53989 0.389756ZM6.53989 11.4597C7.84313 11.4591 9.0927 10.9415 10.0148 10.0205C11.0971 8.93937 11.615 7.41608 11.4158 5.89937C11.2167 4.38249 10.3233 3.0446 8.99852 2.27937C7.67391 1.51413 6.06852 1.4087 4.65516 1.99418C3.24173 2.57949 2.18094 3.78906 1.78512 5.26687C1.38946 6.74469 1.70365 8.32246 2.63536 9.53601C3.56692 10.7495 5.01009 11.4605 6.53993 11.4598L6.53989 11.4597Z" fill="black"/>
</svg>
