<svg width="30" height="30" viewBox="0 0 30 30" fill="none" xmlns="http://www.w3.org/2000/svg">
<rect x="0.5" y="0.5" width="29" height="29" rx="14.5" stroke="black"/>
<mask id="mask0_274_18" style="mask-type:luminance" maskUnits="userSpaceOnUse" x="7" y="8" width="15" height="15">
<path d="M7 8H22V22.4434H7V8Z" fill="white"/>
</mask>
<g mask="url(#mask0_274_18)">
<path d="M19.0001 16.6662C18.1 16.6662 17.2751 17.0272 16.7501 17.6772L12.9252 15.8717C13.0002 15.6552 13.0002 15.4385 13.0002 15.2219C13.0002 15.0052 13.0002 14.7886 12.9252 14.6442L16.7501 12.7665C17.2751 13.4165 18.1002 13.7775 19.0001 13.7775C20.65 13.7775 22 12.4776 22 10.8889C22 9.30018 20.65 8.00024 19.0001 8.00024C17.3502 8.00024 16.0001 9.30018 16.0001 10.8889C16.0001 11.1056 16.0001 11.3221 16.0752 11.4666L12.2502 13.3443C11.7252 12.6943 10.9003 12.3332 10.0002 12.3332C8.35028 12.3332 7.00031 13.6332 7.00031 15.2219C7.00031 16.8106 8.35034 18.1105 10.0002 18.1105C10.9003 18.1105 11.7252 17.7495 12.2502 17.0995L16.0752 18.9049C16.0001 19.1215 16.0001 19.3382 16.0001 19.5548C16.0001 21.1435 17.3502 22.4434 19.0001 22.4434C20.65 22.4434 22 21.1435 22 19.5548C22 17.9661 20.65 16.6662 19.0001 16.6662ZM19.0001 9.44459C19.8251 9.44459 20.5001 10.0946 20.5001 10.889C20.5001 11.6834 19.8251 12.3334 19.0001 12.3334C18.175 12.3334 17.5 11.6834 17.5 10.889C17.5001 10.0944 18.1752 9.44459 19.0001 9.44459ZM9.99996 16.6662C9.17492 16.6662 8.4999 16.0162 8.4999 15.2218C8.4999 14.4273 9.17492 13.7774 9.99996 13.7774C10.825 13.7774 11.5 14.4273 11.5 15.2218C11.5 16.0162 10.825 16.6662 9.99996 16.6662ZM19.0001 20.9991C18.175 20.9991 17.5 20.3491 17.5 19.5547C17.5 18.7603 18.175 18.1103 19.0001 18.1103C19.8251 18.1103 20.5001 18.7603 20.5001 19.5547C20.5001 20.3491 19.8251 20.9991 19.0001 20.9991Z" fill="black"/>
</g>
</svg>
