<svg width="22" height="24" viewBox="0 0 22 24" fill="none" xmlns="http://www.w3.org/2000/svg">
<path d="M21 7.44531V12.2269C18.9845 12.0136 17.0627 11.2136 15.4444 9.91435V15.2483C15.4441 16.6958 15.0616 18.1138 14.3408 19.3401C13.6199 20.5663 12.5898 21.5511 11.3685 22.1817C10.1472 22.8123 8.78412 23.0631 7.43539 22.9054C6.08666 22.7477 4.80684 22.1879 3.74256 21.2901C2.67829 20.3923 1.8726 19.1928 1.41781 17.8291C0.963016 16.4654 0.877514 14.9926 1.1711 13.5795C1.46468 12.1663 2.12548 10.87 3.07778 9.83898C4.03008 8.80796 5.23537 8.08397 6.55556 7.74994V12.8777C6.17676 13.1807 5.87688 13.5821 5.68438 14.0436C5.49188 14.505 5.41315 15.0114 5.45567 15.5144C5.49819 16.0175 5.66055 16.5006 5.92733 16.9179C6.19411 17.3353 6.55646 17.6729 6.97996 17.8988C7.40347 18.1247 7.87407 18.2313 8.34708 18.2086C8.82009 18.1859 9.27981 18.0346 9.68259 17.7691C10.0854 17.5035 10.4178 17.1325 10.6484 16.6913C10.879 16.2502 11 15.7534 11 15.2483V1.61707H15.5367C15.768 3.07312 16.4182 4.41636 17.3971 5.46063C18.376 6.50491 19.6351 7.19851 21 7.44531Z" stroke="black" stroke-width="1.5" stroke-linecap="round" stroke-linejoin="round"/>
</svg>
